<svg xmlns:xlink="http://www.w3.org/1999/xlink" xmlns="http://www.w3.org/2000/svg" width="1000.0" height="274.134790528">
  <desc>Created by CircuitLab https://www.circuitlab.com/</desc><g transform="matrix(0.455373406193,0,0,0.455373406193,-819.216757742,-443.533697633)">
    <rect x="1800" y="975" width="2125" height="600" r="0" rx="0" ry="0" fill="none" stroke="none" style="stroke-opacity: 0;"/>
    <rect x="1800" y="975" width="2125" height="600" r="0" rx="0" ry="0" fill="none" stroke="#000000" stroke-dasharray="none" stroke-width="2"/>
    <rect x="3400" y="1300" width="300" height="200" r="0" rx="0" ry="0" fill="none" stroke="none" style="stroke-opacity: 0;"/>
    <rect x="3400" y="1300" width="300" height="200" r="0" rx="0" ry="0" fill="none" stroke="#000000" stroke-dasharray="16,6" stroke-width="2"/>
    <path style="stroke-linejoin: round;" fill="#000000" stroke="#000000" d="M0,50L12,37L32,37Z" stroke-width="2" stroke-linejoin="round" transform="translate(3925,1175)"/>
    <path style="stroke-linejoin: round;" fill="#000000" stroke="#000000" d="M0,50L12,37L32.66666666666667,37Z" stroke-width="2" stroke-linejoin="round" transform="translate(3925,1075)"/>
    <rect x="3400" y="1050" width="300" height="200" r="0" rx="0" ry="0" fill="none" stroke="none" style="stroke-opacity: 0;"/>
    <rect x="3400" y="1050" width="300" height="200" r="0" rx="0" ry="0" fill="none" stroke="#000000" stroke-dasharray="16,6" stroke-width="2"/>
    <rect x="2650" y="1050" width="350" height="200" r="0" rx="0" ry="0" fill="none" stroke="none" style="stroke-opacity: 0;"/>
    <rect x="2650" y="1050" width="350" height="200" r="0" rx="0" ry="0" fill="none" stroke="#000000" stroke-dasharray="16,6" stroke-width="2"/>
    <rect x="2375" y="1050" width="250" height="200" r="0" rx="0" ry="0" fill="none" stroke="none" style="stroke-opacity: 0;"/>
    <rect x="2375" y="1050" width="250" height="200" r="0" rx="0" ry="0" fill="none" stroke="#000000" stroke-dasharray="16,6" stroke-width="2"/>
    <path style="stroke-linejoin: round;" fill="#000000" stroke="#000000" d="M0,50L12,37L27.666666666666664,37Z" stroke-width="2" stroke-linejoin="round" transform="translate(1825,1475)"/>
    <path style="stroke-linejoin: round;" fill="#000000" stroke="#000000" d="M0,50L12,37L32,37Z" stroke-width="2" stroke-linejoin="round" transform="translate(1825,1425)"/>
    <rect x="1925" y="1050" width="425" height="200" r="0" rx="0" ry="0" fill="none" stroke="none" style="stroke-opacity: 0;"/>
    <rect x="1925" y="1050" width="425" height="200" r="0" rx="0" ry="0" fill="none" stroke="#000000" stroke-dasharray="16,6" stroke-width="2"/>
    <rect x="3050" y="1050" width="300" height="200" r="0" rx="0" ry="0" fill="none" stroke="none" style="stroke-opacity: 0;"/>
    <rect x="3050" y="1050" width="300" height="200" r="0" rx="0" ry="0" fill="none" stroke="#000000" stroke-dasharray="16,6" stroke-width="2"/>
    <path style="stroke-linejoin: round;" fill="#000000" stroke="#000000" d="M0,50L12,37L28,37Z" stroke-width="2" stroke-linejoin="round" transform="translate(1825,1100)"/>
    <path style="stroke-linecap: round; stroke-miterlimit: 6;" fill="#ffffff" stroke="#000000" d="M12.5,62.5L87.5,62.5L87.5,0L12.5,0L12.5,62.5Z" stroke-width="2" stroke-linecap="round" stroke-miterlimit="6" transform="translate(1975,1125)"/>
    <path style="stroke-linecap: round; stroke-miterlimit: 6;" fill="none" stroke="#000000" d="M0,25L12.5,25" stroke-width="2" stroke-linecap="round" stroke-miterlimit="6" transform="translate(1975,1125)"/>
    <path style="stroke-linecap: round; stroke-miterlimit: 6;" fill="none" stroke="#000000" d="M100,25L87.5,25" stroke-width="2" stroke-linecap="round" stroke-miterlimit="6" transform="translate(1975,1125)"/>
    <path style="stroke-linecap: round; stroke-miterlimit: 6;" fill="none" stroke="#000000" d="M62.5,62.5L50,50L37.5,62.5" stroke-width="2" stroke-linecap="round" stroke-miterlimit="6" transform="translate(1975,1125)"/>
    <path style="stroke-linecap: round; stroke-miterlimit: 6;" fill="none" stroke="#000000" d="M50,75L50,62.5" stroke-width="2" stroke-linecap="round" stroke-miterlimit="6" transform="translate(1975,1125)"/>
    <path fill="#000000" stroke="none" d="M46.693359,37.413086C46.173821,37.043954,45.597324,36.859384,44.963867,36.859375C43.938471,36.859384,43.077144,37.349292,42.379883,38.329102C41.687172,39.304368,41.340818,40.386724,41.34082,41.576172C41.340818,42.346357,41.529945,42.961591,41.908203,43.421875C42.286455,43.882163,42.812821,44.112306,43.487305,44.112305C44.535476,44.112306,45.358066,43.827476,45.955078,43.257812L45.920898,44.823242C45.273756,45.388346,44.341791,45.670898,43.125,45.670898C42.040361,45.670898,41.165362,45.31543,40.5,44.604492C39.834634,43.888999,39.501952,42.961591,39.501953,41.822266C39.501952,39.981125,40.012369,38.436205,41.033203,37.1875C42.05859,35.938812,43.396154,35.314463,45.045898,35.314453C45.852532,35.314463,46.568026,35.446625,47.192383,35.710937L46.693359,37.413086" transform="translate(1975,1125)"/>
    <path fill="#000000" stroke="none" d="M53.973633,45.5L47.657227,45.5L49.496094,35.485352L51.287109,35.485352L49.735352,43.941406L54.260742,43.941406L53.973633,45.5" transform="translate(1975,1125)"/>
    <path fill="#000000" stroke="none" d="M60.296875,39.887695L62.785156,45.5L60.782227,45.5L58.90918,41.220703L57.487305,42.786133L56.981445,45.5L55.204102,45.5L57.042969,35.485352L58.820312,35.485352L57.993164,40.038086L62.149414,35.485352L64.254883,35.485352L60.296875,39.887695" transform="translate(1975,1125)"/>
    <path fill="#000000" stroke="none" d="M18.419922,30.086L16,30.086L17.825195,20.09186C18.490557,19.97338,19.114905,19.914136,19.698242,19.914125C21.224929,19.914136,22.405267,20.262768,23.239258,20.960024C24.073234,21.657298,24.490226,22.666737,24.490234,23.988344C24.490226,25.843166,23.938794,27.324284,22.835937,28.431704C21.733067,29.534569,20.261063,30.086,18.419922,30.086M19.308594,21.534243L18.091797,28.493227C18.292315,28.511458,18.474607,28.520572,18.638672,28.520571C19.860022,28.520572,20.830724,28.089909,21.550781,27.228579C22.270827,26.367254,22.630852,25.262112,22.630859,23.913149C22.630852,23.174875,22.38248,22.582427,21.885742,22.135805C21.388992,21.689199,20.750972,21.465892,19.97168,21.465883C19.752926,21.465892,19.531897,21.488678,19.308594,21.534243" transform="translate(1975,1125)"/>
    <path fill="#000000" stroke="none" d="M77.936897,30.229078C77.595095,30.311109,77.223677,30.352125,76.822639,30.352125C75.724329,30.352125,74.876674,30.005771,74.279671,29.313063C73.687222,28.615799,73.390998,27.651932,73.390999,26.421461C73.390998,24.630451,73.876349,23.099202,74.847054,21.827711C75.817753,20.551679,77.084679,19.913659,78.647835,19.913649C79.841838,19.913659,80.76241,20.237226,81.409554,20.884352C82.061237,21.526938,82.387083,22.44751,82.387093,23.64607C82.387083,25.058836,82.118203,26.31209,81.580452,27.405836C81.042683,28.499588,80.277059,29.278884,79.283577,29.743727C79.474976,30.131096,79.80538,30.431877,80.274788,30.64607C80.744181,30.86482,81.245482,30.974195,81.778694,30.974195C82.339231,30.974195,82.861041,30.810132,83.344124,30.482008L84.000374,31.548414C83.41703,32.282136,82.557981,32.648998,81.423225,32.649C80.653035,32.648998,79.948934,32.427969,79.310921,31.985914C78.677451,31.548413,78.219444,30.962801,77.936897,30.229078M75.236702,26.236891C75.236699,27.025305,75.389368,27.647375,75.69471,28.103102C76.004602,28.554275,76.453495,28.779861,77.041389,28.77986C78.121462,28.779861,78.975953,28.289953,79.604866,27.310133C80.233765,26.330319,80.548217,25.156818,80.548225,23.789625C80.548217,22.249268,79.876018,21.479087,78.531624,21.479078C77.583702,21.479087,76.79757,21.984946,76.173225,22.996656C75.548873,24.003824,75.236699,25.083901,75.236702,26.236891" transform="translate(1975,1125)"/>
    <text style="font-family: Arial; font-size: 16px; font-weight: bold; text-anchor: middle;" x="0" y="0" text-anchor="middle" stroke="none" fill="#000000" transform="translate(2025,1110.4)">
      <tspan dy="7.2">D0</tspan>
    </text>
    <path style="stroke-linecap: round; stroke-miterlimit: 6;" fill="#ffffff" stroke="#000000" d="M12.5,62.5L87.5,62.5L87.5,0L12.5,0L12.5,62.5Z" stroke-width="2" stroke-linecap="round" stroke-miterlimit="6" transform="translate(3075,1125)"/>
    <path style="stroke-linecap: round; stroke-miterlimit: 6;" fill="none" stroke="#000000" d="M0,25L12.5,25" stroke-width="2" stroke-linecap="round" stroke-miterlimit="6" transform="translate(3075,1125)"/>
    <path style="stroke-linecap: round; stroke-miterlimit: 6;" fill="none" stroke="#000000" d="M100,25L87.5,25" stroke-width="2" stroke-linecap="round" stroke-miterlimit="6" transform="translate(3075,1125)"/>
    <path style="stroke-linecap: round; stroke-miterlimit: 6;" fill="none" stroke="#000000" d="M62.5,62.5L50,50L37.5,62.5" stroke-width="2" stroke-linecap="round" stroke-miterlimit="6" transform="translate(3075,1125)"/>
    <path style="stroke-linecap: round; stroke-miterlimit: 6;" fill="none" stroke="#000000" d="M50,75L50,62.5" stroke-width="2" stroke-linecap="round" stroke-miterlimit="6" transform="translate(3075,1125)"/>
    <path fill="#000000" stroke="none" d="M46.693359,37.413086C46.173821,37.043954,45.597324,36.859384,44.963867,36.859375C43.938471,36.859384,43.077144,37.349292,42.379883,38.329102C41.687172,39.304368,41.340818,40.386724,41.34082,41.576172C41.340818,42.346357,41.529945,42.961591,41.908203,43.421875C42.286455,43.882163,42.812821,44.112306,43.487305,44.112305C44.535476,44.112306,45.358066,43.827476,45.955078,43.257812L45.920898,44.823242C45.273756,45.388346,44.341791,45.670898,43.125,45.670898C42.040361,45.670898,41.165362,45.31543,40.5,44.604492C39.834634,43.888999,39.501952,42.961591,39.501953,41.822266C39.501952,39.981125,40.012369,38.436205,41.033203,37.1875C42.05859,35.938812,43.396154,35.314463,45.045898,35.314453C45.852532,35.314463,46.568026,35.446625,47.192383,35.710937L46.693359,37.413086" transform="translate(3075,1125)"/>
    <path fill="#000000" stroke="none" d="M53.973633,45.5L47.657227,45.5L49.496094,35.485352L51.287109,35.485352L49.735352,43.941406L54.260742,43.941406L53.973633,45.5" transform="translate(3075,1125)"/>
    <path fill="#000000" stroke="none" d="M60.296875,39.887695L62.785156,45.5L60.782227,45.5L58.90918,41.220703L57.487305,42.786133L56.981445,45.5L55.204102,45.5L57.042969,35.485352L58.820312,35.485352L57.993164,40.038086L62.149414,35.485352L64.254883,35.485352L60.296875,39.887695" transform="translate(3075,1125)"/>
    <path fill="#000000" stroke="none" d="M18.419922,30.086L16,30.086L17.825195,20.09186C18.490557,19.97338,19.114905,19.914136,19.698242,19.914125C21.224929,19.914136,22.405267,20.262768,23.239258,20.960024C24.073234,21.657298,24.490226,22.666737,24.490234,23.988344C24.490226,25.843166,23.938794,27.324284,22.835937,28.431704C21.733067,29.534569,20.261063,30.086,18.419922,30.086M19.308594,21.534243L18.091797,28.493227C18.292315,28.511458,18.474607,28.520572,18.638672,28.520571C19.860022,28.520572,20.830724,28.089909,21.550781,27.228579C22.270827,26.367254,22.630852,25.262112,22.630859,23.913149C22.630852,23.174875,22.38248,22.582427,21.885742,22.135805C21.388992,21.689199,20.750972,21.465892,19.97168,21.465883C19.752926,21.465892,19.531897,21.488678,19.308594,21.534243" transform="translate(3075,1125)"/>
    <path fill="#000000" stroke="none" d="M77.936897,30.229078C77.595095,30.311109,77.223677,30.352125,76.822639,30.352125C75.724329,30.352125,74.876674,30.005771,74.279671,29.313063C73.687222,28.615799,73.390998,27.651932,73.390999,26.421461C73.390998,24.630451,73.876349,23.099202,74.847054,21.827711C75.817753,20.551679,77.084679,19.913659,78.647835,19.913649C79.841838,19.913659,80.76241,20.237226,81.409554,20.884352C82.061237,21.526938,82.387083,22.44751,82.387093,23.64607C82.387083,25.058836,82.118203,26.31209,81.580452,27.405836C81.042683,28.499588,80.277059,29.278884,79.283577,29.743727C79.474976,30.131096,79.80538,30.431877,80.274788,30.64607C80.744181,30.86482,81.245482,30.974195,81.778694,30.974195C82.339231,30.974195,82.861041,30.810132,83.344124,30.482008L84.000374,31.548414C83.41703,32.282136,82.557981,32.648998,81.423225,32.649C80.653035,32.648998,79.948934,32.427969,79.310921,31.985914C78.677451,31.548413,78.219444,30.962801,77.936897,30.229078M75.236702,26.236891C75.236699,27.025305,75.389368,27.647375,75.69471,28.103102C76.004602,28.554275,76.453495,28.779861,77.041389,28.77986C78.121462,28.779861,78.975953,28.289953,79.604866,27.310133C80.233765,26.330319,80.548217,25.156818,80.548225,23.789625C80.548217,22.249268,79.876018,21.479087,78.531624,21.479078C77.583702,21.479087,76.79757,21.984946,76.173225,22.996656C75.548873,24.003824,75.236699,25.083901,75.236702,26.236891" transform="translate(3075,1125)"/>
    <text style="font-family: Arial; font-size: 16px; font-weight: bold; text-anchor: middle;" x="0" y="0" text-anchor="middle" stroke="none" fill="#000000" transform="translate(3125,1110.4)">
      <tspan dy="7.2">D0_meta</tspan>
    </text>
    <path style="stroke-linecap: round; stroke-miterlimit: 6;" fill="#ffffff" stroke="#000000" d="M12.5,62.5L87.5,62.5L87.5,0L12.5,0L12.5,62.5Z" stroke-width="2" stroke-linecap="round" stroke-miterlimit="6" transform="translate(3200,1125)"/>
    <path style="stroke-linecap: round; stroke-miterlimit: 6;" fill="none" stroke="#000000" d="M0,25L12.5,25" stroke-width="2" stroke-linecap="round" stroke-miterlimit="6" transform="translate(3200,1125)"/>
    <path style="stroke-linecap: round; stroke-miterlimit: 6;" fill="none" stroke="#000000" d="M100,25L87.5,25" stroke-width="2" stroke-linecap="round" stroke-miterlimit="6" transform="translate(3200,1125)"/>
    <path style="stroke-linecap: round; stroke-miterlimit: 6;" fill="none" stroke="#000000" d="M62.5,62.5L50,50L37.5,62.5" stroke-width="2" stroke-linecap="round" stroke-miterlimit="6" transform="translate(3200,1125)"/>
    <path style="stroke-linecap: round; stroke-miterlimit: 6;" fill="none" stroke="#000000" d="M50,75L50,62.5" stroke-width="2" stroke-linecap="round" stroke-miterlimit="6" transform="translate(3200,1125)"/>
    <path fill="#000000" stroke="none" d="M46.693359,37.413086C46.173821,37.043954,45.597324,36.859384,44.963867,36.859375C43.938471,36.859384,43.077144,37.349292,42.379883,38.329102C41.687172,39.304368,41.340818,40.386724,41.34082,41.576172C41.340818,42.346357,41.529945,42.961591,41.908203,43.421875C42.286455,43.882163,42.812821,44.112306,43.487305,44.112305C44.535476,44.112306,45.358066,43.827476,45.955078,43.257812L45.920898,44.823242C45.273756,45.388346,44.341791,45.670898,43.125,45.670898C42.040361,45.670898,41.165362,45.31543,40.5,44.604492C39.834634,43.888999,39.501952,42.961591,39.501953,41.822266C39.501952,39.981125,40.012369,38.436205,41.033203,37.1875C42.05859,35.938812,43.396154,35.314463,45.045898,35.314453C45.852532,35.314463,46.568026,35.446625,47.192383,35.710937L46.693359,37.413086" transform="translate(3200,1125)"/>
    <path fill="#000000" stroke="none" d="M53.973633,45.5L47.657227,45.5L49.496094,35.485352L51.287109,35.485352L49.735352,43.941406L54.260742,43.941406L53.973633,45.5" transform="translate(3200,1125)"/>
    <path fill="#000000" stroke="none" d="M60.296875,39.887695L62.785156,45.5L60.782227,45.5L58.90918,41.220703L57.487305,42.786133L56.981445,45.5L55.204102,45.5L57.042969,35.485352L58.820312,35.485352L57.993164,40.038086L62.149414,35.485352L64.254883,35.485352L60.296875,39.887695" transform="translate(3200,1125)"/>
    <path fill="#000000" stroke="none" d="M18.419922,30.086L16,30.086L17.825195,20.09186C18.490557,19.97338,19.114905,19.914136,19.698242,19.914125C21.224929,19.914136,22.405267,20.262768,23.239258,20.960024C24.073234,21.657298,24.490226,22.666737,24.490234,23.988344C24.490226,25.843166,23.938794,27.324284,22.835937,28.431704C21.733067,29.534569,20.261063,30.086,18.419922,30.086M19.308594,21.534243L18.091797,28.493227C18.292315,28.511458,18.474607,28.520572,18.638672,28.520571C19.860022,28.520572,20.830724,28.089909,21.550781,27.228579C22.270827,26.367254,22.630852,25.262112,22.630859,23.913149C22.630852,23.174875,22.38248,22.582427,21.885742,22.135805C21.388992,21.689199,20.750972,21.465892,19.97168,21.465883C19.752926,21.465892,19.531897,21.488678,19.308594,21.534243" transform="translate(3200,1125)"/>
    <path fill="#000000" stroke="none" d="M77.936897,30.229078C77.595095,30.311109,77.223677,30.352125,76.822639,30.352125C75.724329,30.352125,74.876674,30.005771,74.279671,29.313063C73.687222,28.615799,73.390998,27.651932,73.390999,26.421461C73.390998,24.630451,73.876349,23.099202,74.847054,21.827711C75.817753,20.551679,77.084679,19.913659,78.647835,19.913649C79.841838,19.913659,80.76241,20.237226,81.409554,20.884352C82.061237,21.526938,82.387083,22.44751,82.387093,23.64607C82.387083,25.058836,82.118203,26.31209,81.580452,27.405836C81.042683,28.499588,80.277059,29.278884,79.283577,29.743727C79.474976,30.131096,79.80538,30.431877,80.274788,30.64607C80.744181,30.86482,81.245482,30.974195,81.778694,30.974195C82.339231,30.974195,82.861041,30.810132,83.344124,30.482008L84.000374,31.548414C83.41703,32.282136,82.557981,32.648998,81.423225,32.649C80.653035,32.648998,79.948934,32.427969,79.310921,31.985914C78.677451,31.548413,78.219444,30.962801,77.936897,30.229078M75.236702,26.236891C75.236699,27.025305,75.389368,27.647375,75.69471,28.103102C76.004602,28.554275,76.453495,28.779861,77.041389,28.77986C78.121462,28.779861,78.975953,28.289953,79.604866,27.310133C80.233765,26.330319,80.548217,25.156818,80.548225,23.789625C80.548217,22.249268,79.876018,21.479087,78.531624,21.479078C77.583702,21.479087,76.79757,21.984946,76.173225,22.996656C75.548873,24.003824,75.236699,25.083901,75.236702,26.236891" transform="translate(3200,1125)"/>
    <text style="font-family: Arial; font-size: 16px; font-weight: bold; text-anchor: middle;" x="0" y="0" text-anchor="middle" stroke="none" fill="#000000" transform="translate(3250,1110.4)">
      <tspan dy="7.2">D1_sync</tspan>
    </text>
    <path style="stroke-linecap: round; stroke-miterlimit: 6;" fill="#ffffff" stroke="#000000" d="M62.5,12.5L12.5,12.5L12.5,87.5L62.5,87.5" stroke-width="2" stroke-linecap="round" stroke-miterlimit="6" transform="translate(2225,1075)"/>
    <path style="stroke-linecap: round; stroke-miterlimit: 6;" fill="#ffffff" stroke="#000000" d="M62.5,87.5C83.210417,87.5,100,70.71052,100,50C100,29.28967,83.210417,12.5,62.5,12.5" stroke-width="2" stroke-linecap="round" stroke-miterlimit="6" transform="translate(2225,1075)"/>
    <path style="stroke-linecap: round; stroke-miterlimit: 6;" fill="none" stroke="#000000" d="M125,50L100,50" stroke-width="2" stroke-linecap="round" stroke-miterlimit="6" transform="translate(2225,1075)"/>
    <path style="stroke-linecap: round; stroke-miterlimit: 6;" fill="none" stroke="#000000" d="M0,25L12.5,25" stroke-width="2" stroke-linecap="round" stroke-miterlimit="6" transform="translate(2225,1075)"/>
    <path style="stroke-linecap: round; stroke-miterlimit: 6;" fill="none" stroke="#000000" d="M0,75L12.5,75" stroke-width="2" stroke-linecap="round" stroke-miterlimit="6" transform="translate(2225,1075)"/>
    <text style="font-family: Arial; font-size: 16px; font-weight: bold; text-anchor: start;" x="0" y="0" text-anchor="start" stroke="none" fill="#000000" transform="translate(2262.5,1125)">
      <tspan dy="7.2">AND1</tspan>
    </text>
    <path style="fill-opacity: 0.94117647; stroke-linecap: round; stroke-miterlimit: 6;" fill="#ffffff" stroke="#000000" d="M74.75,50L18.5,18.75L18.5,81.25002L74.75,50Z" fill-opacity="0.94117647" stroke-width="2" stroke-linecap="round" stroke-miterlimit="6" transform="translate(2100,1100)"/>
    <path style="fill-opacity: 0.94117647; stroke-linecap: round; stroke-miterlimit: 6;" fill="#ffffff" stroke="#000000" d="M88.58929,50C88.58929,46.5478,85.79137,43.75,82.33929,43.75C78.887207,43.75,76.08929,46.5478,76.08929,50C76.08929,53.45202,78.887207,56.25002,82.33929,56.25002C85.79137,56.25002,88.58929,53.45202,88.58929,50" fill-opacity="0.94117647" stroke-width="2" stroke-linecap="round" stroke-miterlimit="6" transform="translate(2100,1100)"/>
    <path style="stroke-linecap: round; stroke-miterlimit: 6;" fill="none" stroke="#000000" d="M0,50L18.5,50" stroke-width="2" stroke-linecap="round" stroke-miterlimit="6" transform="translate(2100,1100)"/>
    <path style="stroke-linecap: round; stroke-miterlimit: 6;" fill="none" stroke="#000000" d="M100,50L88.58929,50" stroke-width="2" stroke-linecap="round" stroke-miterlimit="6" transform="translate(2100,1100)"/>
    <text style="font-family: Arial; font-size: 16px; font-weight: bold; text-anchor: start;" x="0" y="0" text-anchor="start" stroke="none" fill="#000000" transform="translate(2122.5,1150)">
      <tspan dy="7.2">NOT1</tspan>
    </text>
    <path style="stroke-linecap: round;" fill="none" stroke="#000000" d="M 2075 1150 L 2100 1150" stroke-width="2" stroke-linecap="round" class="cl_wire"/>
    <path style="stroke-linecap: round;" fill="none" stroke="#000000" d="M 2200 1150 L 2225 1150" stroke-width="2" stroke-linecap="round" class="cl_wire"/>
    <path style="stroke-linecap: round;" fill="none" stroke="#000000" d="M 1800 1150 L 1975 1150" stroke-width="2" stroke-linecap="round" class="cl_wire"/>
    <path style="stroke-linecap: round;" fill="none" stroke="#000000" d="M 1950 1100 L 2225 1100" stroke-width="2" stroke-linecap="round" class="cl_wire"/>
    <path style="stroke-linecap: round;" fill="none" stroke="#000000" d="M 1950 1100 L 1950 1150" stroke-width="2" stroke-linecap="round" class="cl_wire"/>
    <path style="stroke-linecap: round;" fill="none" stroke="#000000" d="M 3175 1150 L 3200 1150" stroke-width="2" stroke-linecap="round" class="cl_wire"/>
    <rect x="7" y="7" width="48" height="30" r="5" rx="5" ry="5" fill="#ffffff" stroke="#000000" stroke-width="2" transform="translate(1825,1100)"/>
    <text style="font-family: Arial; font-size: 16px; font-weight: bold; text-anchor: start;" x="12" y="22" text-anchor="start" stroke="none" fill="#000000" transform="translate(1825,1100)">
      <tspan dy="7.2">Input</tspan>
    </text>
    <text style="font-family: Arial; font-size: 16px; font-weight: bold; text-anchor: start; font-style: normal;" x="0" y="0" text-anchor="start" stroke="none" fill="#000000" font-style="normal" transform="translate(3400,1311.5)">
      <tspan dy="7.2">2-FF Synchronizer (sync_Bits)</tspan>
    </text>
    <path style="stroke-linecap: round; stroke-miterlimit: 6;" fill="#ffffff" stroke="#000000" d="M12.5,62.5L87.5,62.5L87.5,0L12.5,0L12.5,62.5Z" stroke-width="2" stroke-linecap="round" stroke-miterlimit="6" transform="translate(3450,1125)"/>
    <path style="stroke-linecap: round; stroke-miterlimit: 6;" fill="none" stroke="#000000" d="M0,25L12.5,25" stroke-width="2" stroke-linecap="round" stroke-miterlimit="6" transform="translate(3450,1125)"/>
    <path style="stroke-linecap: round; stroke-miterlimit: 6;" fill="none" stroke="#000000" d="M100,25L87.5,25" stroke-width="2" stroke-linecap="round" stroke-miterlimit="6" transform="translate(3450,1125)"/>
    <path style="stroke-linecap: round; stroke-miterlimit: 6;" fill="none" stroke="#000000" d="M62.5,62.5L50,50L37.5,62.5" stroke-width="2" stroke-linecap="round" stroke-miterlimit="6" transform="translate(3450,1125)"/>
    <path style="stroke-linecap: round; stroke-miterlimit: 6;" fill="none" stroke="#000000" d="M50,75L50,62.5" stroke-width="2" stroke-linecap="round" stroke-miterlimit="6" transform="translate(3450,1125)"/>
    <path fill="#000000" stroke="none" d="M46.693359,37.413086C46.173821,37.043954,45.597324,36.859384,44.963867,36.859375C43.938471,36.859384,43.077144,37.349292,42.379883,38.329102C41.687172,39.304368,41.340818,40.386724,41.34082,41.576172C41.340818,42.346357,41.529945,42.961591,41.908203,43.421875C42.286455,43.882163,42.812821,44.112306,43.487305,44.112305C44.535476,44.112306,45.358066,43.827476,45.955078,43.257812L45.920898,44.823242C45.273756,45.388346,44.341791,45.670898,43.125,45.670898C42.040361,45.670898,41.165362,45.31543,40.5,44.604492C39.834634,43.888999,39.501952,42.961591,39.501953,41.822266C39.501952,39.981125,40.012369,38.436205,41.033203,37.1875C42.05859,35.938812,43.396154,35.314463,45.045898,35.314453C45.852532,35.314463,46.568026,35.446625,47.192383,35.710937L46.693359,37.413086" transform="translate(3450,1125)"/>
    <path fill="#000000" stroke="none" d="M53.973633,45.5L47.657227,45.5L49.496094,35.485352L51.287109,35.485352L49.735352,43.941406L54.260742,43.941406L53.973633,45.5" transform="translate(3450,1125)"/>
    <path fill="#000000" stroke="none" d="M60.296875,39.887695L62.785156,45.5L60.782227,45.5L58.90918,41.220703L57.487305,42.786133L56.981445,45.5L55.204102,45.5L57.042969,35.485352L58.820312,35.485352L57.993164,40.038086L62.149414,35.485352L64.254883,35.485352L60.296875,39.887695" transform="translate(3450,1125)"/>
    <path fill="#000000" stroke="none" d="M18.419922,30.086L16,30.086L17.825195,20.09186C18.490557,19.97338,19.114905,19.914136,19.698242,19.914125C21.224929,19.914136,22.405267,20.262768,23.239258,20.960024C24.073234,21.657298,24.490226,22.666737,24.490234,23.988344C24.490226,25.843166,23.938794,27.324284,22.835937,28.431704C21.733067,29.534569,20.261063,30.086,18.419922,30.086M19.308594,21.534243L18.091797,28.493227C18.292315,28.511458,18.474607,28.520572,18.638672,28.520571C19.860022,28.520572,20.830724,28.089909,21.550781,27.228579C22.270827,26.367254,22.630852,25.262112,22.630859,23.913149C22.630852,23.174875,22.38248,22.582427,21.885742,22.135805C21.388992,21.689199,20.750972,21.465892,19.97168,21.465883C19.752926,21.465892,19.531897,21.488678,19.308594,21.534243" transform="translate(3450,1125)"/>
    <path fill="#000000" stroke="none" d="M77.936897,30.229078C77.595095,30.311109,77.223677,30.352125,76.822639,30.352125C75.724329,30.352125,74.876674,30.005771,74.279671,29.313063C73.687222,28.615799,73.390998,27.651932,73.390999,26.421461C73.390998,24.630451,73.876349,23.099202,74.847054,21.827711C75.817753,20.551679,77.084679,19.913659,78.647835,19.913649C79.841838,19.913659,80.76241,20.237226,81.409554,20.884352C82.061237,21.526938,82.387083,22.44751,82.387093,23.64607C82.387083,25.058836,82.118203,26.31209,81.580452,27.405836C81.042683,28.499588,80.277059,29.278884,79.283577,29.743727C79.474976,30.131096,79.80538,30.431877,80.274788,30.64607C80.744181,30.86482,81.245482,30.974195,81.778694,30.974195C82.339231,30.974195,82.861041,30.810132,83.344124,30.482008L84.000374,31.548414C83.41703,32.282136,82.557981,32.648998,81.423225,32.649C80.653035,32.648998,79.948934,32.427969,79.310921,31.985914C78.677451,31.548413,78.219444,30.962801,77.936897,30.229078M75.236702,26.236891C75.236699,27.025305,75.389368,27.647375,75.69471,28.103102C76.004602,28.554275,76.453495,28.779861,77.041389,28.77986C78.121462,28.779861,78.975953,28.289953,79.604866,27.310133C80.233765,26.330319,80.548217,25.156818,80.548225,23.789625C80.548217,22.249268,79.876018,21.479087,78.531624,21.479078C77.583702,21.479087,76.79757,21.984946,76.173225,22.996656C75.548873,24.003824,75.236699,25.083901,75.236702,26.236891" transform="translate(3450,1125)"/>
    <text style="font-family: Arial; font-size: 16px; font-weight: bold; text-anchor: middle;" x="0" y="0" text-anchor="middle" stroke="none" fill="#000000" transform="translate(3500,1110.4)">
      <tspan dy="7.2">D2</tspan>
    </text>
    <path style="stroke-linecap: round; stroke-miterlimit: 6;" fill="none" stroke="#000000" d="M0,87.58682C8.1610901,76.75672,12.576823,63.56152,12.576823,50C12.576823,36.43842,8.1610901,23.24327,0,12.41317" stroke-width="2" stroke-linecap="round" stroke-miterlimit="6" transform="translate(3575,1075)"/>
    <path style="stroke-linecap: round; stroke-miterlimit: 6;" fill="none" stroke="#000000" d="M6.958,75L0.0853583,75" stroke-width="2" stroke-linecap="round" stroke-miterlimit="6" transform="translate(3575,1075)"/>
    <path style="stroke-linecap: round; stroke-miterlimit: 6;" fill="none" stroke="#000000" d="M6.958,25L0.0853583,25" stroke-width="2" stroke-linecap="round" stroke-miterlimit="6" transform="translate(3575,1075)"/>
    <path style="stroke-linecap: round; stroke-miterlimit: 6;" fill="none" stroke="#000000" d="M125,50L100.22442,50" stroke-width="2" stroke-linecap="round" stroke-miterlimit="6" transform="translate(3575,1075)"/>
    <path style="stroke-linecap: round; stroke-miterlimit: 6;" fill="#ffffff" stroke="#000000" d="M12.5,87.5L35.15625,87.5C61.95,87.5,86.710417,73.20422,100.10833,50C86.710417,26.79583,61.95,12.5,35.15625,12.5L12.5,12.5C20.58125,23.225,25,36.4292,25,50C25,63.57082,20.58125,76.77502,12.5,87.5" stroke-width="2" stroke-linecap="round" stroke-miterlimit="6" transform="translate(3575,1075)"/>
    <text style="font-family: Arial; font-size: 16px; font-weight: bold; text-anchor: start;" x="0" y="0" text-anchor="start" stroke="none" fill="#000000" transform="translate(3612.5,1125)">
      <tspan dy="7.2">XOR1</tspan>
    </text>
    <path style="stroke-linecap: round;" fill="none" stroke="#000000" d="M 1800 1475 L 2025 1475" stroke-width="2" stroke-linecap="round" class="cl_wire"/>
    <path style="stroke-linecap: round;" fill="none" stroke="#000000" d="M 3125 1200 L 3125 1225" stroke-width="2" stroke-linecap="round" class="cl_wire"/>
    <path style="stroke-linecap: round;" fill="none" stroke="#000000" d="M 3250 1200 L 3250 1225" stroke-width="2" stroke-linecap="round" class="cl_wire"/>
    <text style="font-family: Arial; font-size: 16px; font-weight: bold; text-anchor: start; font-style: normal;" x="0" y="0" text-anchor="start" stroke="none" fill="#000000" font-style="normal" transform="translate(1925,1061.5)">
      <tspan dy="7.2">Rising Edge Detection</tspan>
    </text>
    <path style="stroke-linecap: round; stroke-miterlimit: 6;" fill="none" stroke="#000000" d="M0,87.58682C8.1610901,76.75672,12.576823,63.56152,12.576823,50C12.576823,36.43842,8.1610901,23.24327,0,12.41317" stroke-width="2" stroke-linecap="round" stroke-miterlimit="6" transform="translate(2700,1100)"/>
    <path style="stroke-linecap: round; stroke-miterlimit: 6;" fill="none" stroke="#000000" d="M6.958,75L0.0853583,75" stroke-width="2" stroke-linecap="round" stroke-miterlimit="6" transform="translate(2700,1100)"/>
    <path style="stroke-linecap: round; stroke-miterlimit: 6;" fill="none" stroke="#000000" d="M6.958,25L0.0853583,25" stroke-width="2" stroke-linecap="round" stroke-miterlimit="6" transform="translate(2700,1100)"/>
    <path style="stroke-linecap: round; stroke-miterlimit: 6;" fill="none" stroke="#000000" d="M125,50L100.22442,50" stroke-width="2" stroke-linecap="round" stroke-miterlimit="6" transform="translate(2700,1100)"/>
    <path style="stroke-linecap: round; stroke-miterlimit: 6;" fill="#ffffff" stroke="#000000" d="M12.5,87.5L35.15625,87.5C61.95,87.5,86.710417,73.20422,100.10833,50C86.710417,26.79583,61.95,12.5,35.15625,12.5L12.5,12.5C20.58125,23.225,25,36.4292,25,50C25,63.57082,20.58125,76.77502,12.5,87.5" stroke-width="2" stroke-linecap="round" stroke-miterlimit="6" transform="translate(2700,1100)"/>
    <text style="font-family: Arial; font-size: 16px; font-weight: bold; text-anchor: start;" x="0" y="0" text-anchor="start" stroke="none" fill="#000000" transform="translate(2737.5,1150)">
      <tspan dy="7.2">XOR2</tspan>
    </text>
    <path style="stroke-linecap: round; stroke-miterlimit: 6;" fill="#ffffff" stroke="#000000" d="M12.5,62.5L87.5,62.5L87.5,0L12.5,0L12.5,62.5Z" stroke-width="2" stroke-linecap="round" stroke-miterlimit="6" transform="translate(2850,1125)"/>
    <path style="stroke-linecap: round; stroke-miterlimit: 6;" fill="none" stroke="#000000" d="M0,25L12.5,25" stroke-width="2" stroke-linecap="round" stroke-miterlimit="6" transform="translate(2850,1125)"/>
    <path style="stroke-linecap: round; stroke-miterlimit: 6;" fill="none" stroke="#000000" d="M100,25L87.5,25" stroke-width="2" stroke-linecap="round" stroke-miterlimit="6" transform="translate(2850,1125)"/>
    <path style="stroke-linecap: round; stroke-miterlimit: 6;" fill="none" stroke="#000000" d="M62.5,62.5L50,50L37.5,62.5" stroke-width="2" stroke-linecap="round" stroke-miterlimit="6" transform="translate(2850,1125)"/>
    <path style="stroke-linecap: round; stroke-miterlimit: 6;" fill="none" stroke="#000000" d="M50,75L50,62.5" stroke-width="2" stroke-linecap="round" stroke-miterlimit="6" transform="translate(2850,1125)"/>
    <path fill="#000000" stroke="none" d="M46.693359,37.413086C46.173821,37.043954,45.597324,36.859384,44.963867,36.859375C43.938471,36.859384,43.077144,37.349292,42.379883,38.329102C41.687172,39.304368,41.340818,40.386724,41.34082,41.576172C41.340818,42.346357,41.529945,42.961591,41.908203,43.421875C42.286455,43.882163,42.812821,44.112306,43.487305,44.112305C44.535476,44.112306,45.358066,43.827476,45.955078,43.257812L45.920898,44.823242C45.273756,45.388346,44.341791,45.670898,43.125,45.670898C42.040361,45.670898,41.165362,45.31543,40.5,44.604492C39.834634,43.888999,39.501952,42.961591,39.501953,41.822266C39.501952,39.981125,40.012369,38.436205,41.033203,37.1875C42.05859,35.938812,43.396154,35.314463,45.045898,35.314453C45.852532,35.314463,46.568026,35.446625,47.192383,35.710937L46.693359,37.413086" transform="translate(2850,1125)"/>
    <path fill="#000000" stroke="none" d="M53.973633,45.5L47.657227,45.5L49.496094,35.485352L51.287109,35.485352L49.735352,43.941406L54.260742,43.941406L53.973633,45.5" transform="translate(2850,1125)"/>
    <path fill="#000000" stroke="none" d="M60.296875,39.887695L62.785156,45.5L60.782227,45.5L58.90918,41.220703L57.487305,42.786133L56.981445,45.5L55.204102,45.5L57.042969,35.485352L58.820312,35.485352L57.993164,40.038086L62.149414,35.485352L64.254883,35.485352L60.296875,39.887695" transform="translate(2850,1125)"/>
    <path fill="#000000" stroke="none" d="M18.419922,30.086L16,30.086L17.825195,20.09186C18.490557,19.97338,19.114905,19.914136,19.698242,19.914125C21.224929,19.914136,22.405267,20.262768,23.239258,20.960024C24.073234,21.657298,24.490226,22.666737,24.490234,23.988344C24.490226,25.843166,23.938794,27.324284,22.835937,28.431704C21.733067,29.534569,20.261063,30.086,18.419922,30.086M19.308594,21.534243L18.091797,28.493227C18.292315,28.511458,18.474607,28.520572,18.638672,28.520571C19.860022,28.520572,20.830724,28.089909,21.550781,27.228579C22.270827,26.367254,22.630852,25.262112,22.630859,23.913149C22.630852,23.174875,22.38248,22.582427,21.885742,22.135805C21.388992,21.689199,20.750972,21.465892,19.97168,21.465883C19.752926,21.465892,19.531897,21.488678,19.308594,21.534243" transform="translate(2850,1125)"/>
    <path fill="#000000" stroke="none" d="M77.936897,30.229078C77.595095,30.311109,77.223677,30.352125,76.822639,30.352125C75.724329,30.352125,74.876674,30.005771,74.279671,29.313063C73.687222,28.615799,73.390998,27.651932,73.390999,26.421461C73.390998,24.630451,73.876349,23.099202,74.847054,21.827711C75.817753,20.551679,77.084679,19.913659,78.647835,19.913649C79.841838,19.913659,80.76241,20.237226,81.409554,20.884352C82.061237,21.526938,82.387083,22.44751,82.387093,23.64607C82.387083,25.058836,82.118203,26.31209,81.580452,27.405836C81.042683,28.499588,80.277059,29.278884,79.283577,29.743727C79.474976,30.131096,79.80538,30.431877,80.274788,30.64607C80.744181,30.86482,81.245482,30.974195,81.778694,30.974195C82.339231,30.974195,82.861041,30.810132,83.344124,30.482008L84.000374,31.548414C83.41703,32.282136,82.557981,32.648998,81.423225,32.649C80.653035,32.648998,79.948934,32.427969,79.310921,31.985914C78.677451,31.548413,78.219444,30.962801,77.936897,30.229078M75.236702,26.236891C75.236699,27.025305,75.389368,27.647375,75.69471,28.103102C76.004602,28.554275,76.453495,28.779861,77.041389,28.77986C78.121462,28.779861,78.975953,28.289953,79.604866,27.310133C80.233765,26.330319,80.548217,25.156818,80.548225,23.789625C80.548217,22.249268,79.876018,21.479087,78.531624,21.479078C77.583702,21.479087,76.79757,21.984946,76.173225,22.996656C75.548873,24.003824,75.236699,25.083901,75.236702,26.236891" transform="translate(2850,1125)"/>
    <text style="font-family: Arial; font-size: 16px; font-weight: bold; text-anchor: middle;" x="0" y="0" text-anchor="middle" stroke="none" fill="#000000" transform="translate(2900,1110.4)">
      <tspan dy="7.2">T1</tspan>
    </text>
    <rect x="7" y="7" width="60" height="30" r="5" rx="5" ry="5" fill="#ffffff" stroke="#000000" stroke-width="2" transform="translate(1825,1425)"/>
    <text style="font-family: Arial; font-size: 16px; font-weight: bold; text-anchor: start;" x="12" y="22" text-anchor="start" stroke="none" fill="#000000" transform="translate(1825,1425)">
      <tspan dy="7.2">Clock1</tspan>
    </text>
    <path style="stroke-linecap: round;" fill="none" stroke="#000000" d="M 1800 1525 L 2400 1525" stroke-width="2" stroke-linecap="round" class="cl_wire"/>
    <rect x="7" y="7" width="47" height="30" r="5" rx="5" ry="5" fill="#ffffff" stroke="#000000" stroke-width="2" transform="translate(1825,1475)"/>
    <text style="font-family: Arial; font-size: 16px; font-weight: bold; text-anchor: start;" x="12" y="22" text-anchor="start" stroke="none" fill="#000000" transform="translate(1825,1475)">
      <tspan dy="7.2">Busy</tspan>
    </text>
    <path style="stroke-linecap: round; stroke-miterlimit: 6;" fill="#ffffff" stroke="#000000" d="M62.5,12.5L12.5,12.5L12.5,87.5L62.5,87.5" stroke-width="2" stroke-linecap="round" stroke-miterlimit="6" transform="translate(2500,1100)"/>
    <path style="stroke-linecap: round; stroke-miterlimit: 6;" fill="#ffffff" stroke="#000000" d="M62.5,87.5C83.210417,87.5,100,70.71052,100,50C100,29.28967,83.210417,12.5,62.5,12.5" stroke-width="2" stroke-linecap="round" stroke-miterlimit="6" transform="translate(2500,1100)"/>
    <path style="stroke-linecap: round; stroke-miterlimit: 6;" fill="none" stroke="#000000" d="M125,50L100,50" stroke-width="2" stroke-linecap="round" stroke-miterlimit="6" transform="translate(2500,1100)"/>
    <path style="stroke-linecap: round; stroke-miterlimit: 6;" fill="none" stroke="#000000" d="M0,25L12.5,25" stroke-width="2" stroke-linecap="round" stroke-miterlimit="6" transform="translate(2500,1100)"/>
    <path style="stroke-linecap: round; stroke-miterlimit: 6;" fill="none" stroke="#000000" d="M0,75L12.5,75" stroke-width="2" stroke-linecap="round" stroke-miterlimit="6" transform="translate(2500,1100)"/>
    <text style="font-family: Arial; font-size: 16px; font-weight: bold; text-anchor: start;" x="0" y="0" text-anchor="start" stroke="none" fill="#000000" transform="translate(2537.5,1150)">
      <tspan dy="7.2">AND2</tspan>
    </text>
    <path style="stroke-linecap: round;" fill="none" stroke="#000000" d="M 2350 1125 L 2500 1125" stroke-width="2" stroke-linecap="round" class="cl_wire"/>
    <path style="fill-opacity: 0.94117647; stroke-linecap: round; stroke-miterlimit: 6;" fill="#ffffff" stroke="#000000" d="M74.75,50L18.5,18.75L18.5,81.25002L74.75,50Z" fill-opacity="0.94117647" stroke-width="2" stroke-linecap="round" stroke-miterlimit="6" transform="translate(2400,1125)"/>
    <path style="fill-opacity: 0.94117647; stroke-linecap: round; stroke-miterlimit: 6;" fill="#ffffff" stroke="#000000" d="M88.58929,50C88.58929,46.5478,85.79137,43.75,82.33929,43.75C78.887207,43.75,76.08929,46.5478,76.08929,50C76.08929,53.45202,78.887207,56.25002,82.33929,56.25002C85.79137,56.25002,88.58929,53.45202,88.58929,50" fill-opacity="0.94117647" stroke-width="2" stroke-linecap="round" stroke-miterlimit="6" transform="translate(2400,1125)"/>
    <path style="stroke-linecap: round; stroke-miterlimit: 6;" fill="none" stroke="#000000" d="M0,50L18.5,50" stroke-width="2" stroke-linecap="round" stroke-miterlimit="6" transform="translate(2400,1125)"/>
    <path style="stroke-linecap: round; stroke-miterlimit: 6;" fill="none" stroke="#000000" d="M100,50L88.58929,50" stroke-width="2" stroke-linecap="round" stroke-miterlimit="6" transform="translate(2400,1125)"/>
    <text style="font-family: Arial; font-size: 16px; font-weight: bold; text-anchor: start;" x="0" y="0" text-anchor="start" stroke="none" fill="#000000" transform="translate(2422.5,1175)">
      <tspan dy="7.2">NOT2</tspan>
    </text>
    <path style="stroke-linecap: round;" fill="none" stroke="#000000" d="M 2400 1175 L 2400 1375" stroke-width="2" stroke-linecap="round" class="cl_wire"/>
    <path style="stroke-linecap: round;" fill="none" stroke="#000000" d="M 2675 1150 L 2675 1175" stroke-width="2" stroke-linecap="round" class="cl_wire"/>
    <path style="stroke-linecap: round;" fill="none" stroke="#000000" d="M 2675 1175 L 2700 1175" stroke-width="2" stroke-linecap="round" class="cl_wire"/>
    <path style="stroke-linecap: round;" fill="none" stroke="#000000" d="M 2675 1125 L 2700 1125" stroke-width="2" stroke-linecap="round" class="cl_wire"/>
    <path style="stroke-linecap: round;" fill="none" stroke="#000000" d="M 2675 1100 L 2675 1125" stroke-width="2" stroke-linecap="round" class="cl_wire"/>
    <path style="stroke-linecap: round;" fill="none" stroke="#000000" d="M 2675 1100 L 2975 1100" stroke-width="2" stroke-linecap="round" class="cl_wire"/>
    <path style="stroke-linecap: round;" fill="none" stroke="#000000" d="M 2825 1150 L 2850 1150" stroke-width="2" stroke-linecap="round" class="cl_wire"/>
    <path style="stroke-linecap: round;" fill="none" stroke="#000000" d="M 2975 1100 L 2975 1150" stroke-width="2" stroke-linecap="round" class="cl_wire"/>
    <text style="font-family: Arial; font-size: 16px; font-weight: bold; text-anchor: start; font-style: normal;" x="0" y="0" text-anchor="start" stroke="none" fill="#000000" font-style="normal" transform="translate(2375,1061.5)">
      <tspan dy="7.2">Blocking</tspan>
    </text>
    <text style="font-family: Arial; font-size: 16px; font-weight: bold; text-anchor: start; font-style: normal;" x="0" y="0" text-anchor="start" stroke="none" fill="#000000" font-style="normal" transform="translate(2650,1061.5)">
      <tspan dy="7.2">Signal Transformation</tspan>
    </text>
    <path style="stroke-linecap: round;" fill="none" stroke="#000000" d="M 2975 1150 L 3075 1150" stroke-width="2" stroke-linecap="round" class="cl_wire"/>
    <path style="stroke-linecap: round;" fill="none" stroke="#000000" d="M 2900 1200 L 2900 1225" stroke-width="2" stroke-linecap="round" class="cl_wire"/>
    <path style="stroke-linecap: round;" fill="none" stroke="#000000" d="M 3550 1150 L 3575 1150" stroke-width="2" stroke-linecap="round" class="cl_wire"/>
    <path style="stroke-linecap: round;" fill="none" stroke="#000000" d="M 3425 1100 L 3575 1100" stroke-width="2" stroke-linecap="round" class="cl_wire"/>
    <path style="stroke-linecap: round;" fill="none" stroke="#000000" d="M 3425 1100 L 3425 1150" stroke-width="2" stroke-linecap="round" class="cl_wire"/>
    <text style="font-family: Arial; font-size: 16px; font-weight: bold; text-anchor: start; font-style: normal;" x="0" y="0" text-anchor="start" stroke="none" fill="#000000" font-style="normal" transform="translate(3400,1061.5)">
      <tspan dy="7.2">Signal Reconstruction</tspan>
    </text>
    <path style="stroke-linecap: round;" fill="none" stroke="#000000" d="M 3700 1125 L 3950 1125" stroke-width="2" stroke-linecap="round" class="cl_wire"/>
    <rect x="7" y="7" width="62" height="30" r="5" rx="5" ry="5" fill="#ffffff" stroke="#000000" stroke-width="2" transform="translate(3925,1075)"/>
    <text style="font-family: Arial; font-size: 16px; font-weight: bold; text-anchor: start;" x="12" y="22" text-anchor="start" stroke="none" fill="#000000" transform="translate(3925,1075)">
      <tspan dy="7.2">Output</tspan>
    </text>
    <rect x="7" y="7" width="60" height="30" r="5" rx="5" ry="5" fill="#ffffff" stroke="#000000" stroke-width="2" transform="translate(3925,1175)"/>
    <text style="font-family: Arial; font-size: 16px; font-weight: bold; text-anchor: start;" x="12" y="22" text-anchor="start" stroke="none" fill="#000000" transform="translate(3925,1175)">
      <tspan dy="7.2">Clock2</tspan>
    </text>
    <path style="stroke-linecap: round;" fill="none" stroke="#000000" d="M 3500 1200 L 3500 1225" stroke-width="2" stroke-linecap="round" class="cl_wire"/>
    <path style="stroke-linecap: round; stroke-miterlimit: 6;" fill="#ffffff" stroke="#000000" d="M12.5,62.5L87.5,62.5L87.5,0L12.5,0L12.5,62.5Z" stroke-width="2" stroke-linecap="round" stroke-miterlimit="6" transform="translate(3425,1375)"/>
    <path style="stroke-linecap: round; stroke-miterlimit: 6;" fill="none" stroke="#000000" d="M0,25L12.5,25" stroke-width="2" stroke-linecap="round" stroke-miterlimit="6" transform="translate(3425,1375)"/>
    <path style="stroke-linecap: round; stroke-miterlimit: 6;" fill="none" stroke="#000000" d="M100,25L87.5,25" stroke-width="2" stroke-linecap="round" stroke-miterlimit="6" transform="translate(3425,1375)"/>
    <path style="stroke-linecap: round; stroke-miterlimit: 6;" fill="none" stroke="#000000" d="M62.5,62.5L50,50L37.5,62.5" stroke-width="2" stroke-linecap="round" stroke-miterlimit="6" transform="translate(3425,1375)"/>
    <path style="stroke-linecap: round; stroke-miterlimit: 6;" fill="none" stroke="#000000" d="M50,75L50,62.5" stroke-width="2" stroke-linecap="round" stroke-miterlimit="6" transform="translate(3425,1375)"/>
    <path fill="#000000" stroke="none" d="M46.693359,37.413086C46.173821,37.043954,45.597324,36.859384,44.963867,36.859375C43.938471,36.859384,43.077144,37.349292,42.379883,38.329102C41.687172,39.304368,41.340818,40.386724,41.34082,41.576172C41.340818,42.346357,41.529945,42.961591,41.908203,43.421875C42.286455,43.882163,42.812821,44.112306,43.487305,44.112305C44.535476,44.112306,45.358066,43.827476,45.955078,43.257812L45.920898,44.823242C45.273756,45.388346,44.341791,45.670898,43.125,45.670898C42.040361,45.670898,41.165362,45.31543,40.5,44.604492C39.834634,43.888999,39.501952,42.961591,39.501953,41.822266C39.501952,39.981125,40.012369,38.436205,41.033203,37.1875C42.05859,35.938812,43.396154,35.314463,45.045898,35.314453C45.852532,35.314463,46.568026,35.446625,47.192383,35.710937L46.693359,37.413086" transform="translate(3425,1375)"/>
    <path fill="#000000" stroke="none" d="M53.973633,45.5L47.657227,45.5L49.496094,35.485352L51.287109,35.485352L49.735352,43.941406L54.260742,43.941406L53.973633,45.5" transform="translate(3425,1375)"/>
    <path fill="#000000" stroke="none" d="M60.296875,39.887695L62.785156,45.5L60.782227,45.5L58.90918,41.220703L57.487305,42.786133L56.981445,45.5L55.204102,45.5L57.042969,35.485352L58.820312,35.485352L57.993164,40.038086L62.149414,35.485352L64.254883,35.485352L60.296875,39.887695" transform="translate(3425,1375)"/>
    <path fill="#000000" stroke="none" d="M18.419922,30.086L16,30.086L17.825195,20.09186C18.490557,19.97338,19.114905,19.914136,19.698242,19.914125C21.224929,19.914136,22.405267,20.262768,23.239258,20.960024C24.073234,21.657298,24.490226,22.666737,24.490234,23.988344C24.490226,25.843166,23.938794,27.324284,22.835937,28.431704C21.733067,29.534569,20.261063,30.086,18.419922,30.086M19.308594,21.534243L18.091797,28.493227C18.292315,28.511458,18.474607,28.520572,18.638672,28.520571C19.860022,28.520572,20.830724,28.089909,21.550781,27.228579C22.270827,26.367254,22.630852,25.262112,22.630859,23.913149C22.630852,23.174875,22.38248,22.582427,21.885742,22.135805C21.388992,21.689199,20.750972,21.465892,19.97168,21.465883C19.752926,21.465892,19.531897,21.488678,19.308594,21.534243" transform="translate(3425,1375)"/>
    <path fill="#000000" stroke="none" d="M77.936897,30.229078C77.595095,30.311109,77.223677,30.352125,76.822639,30.352125C75.724329,30.352125,74.876674,30.005771,74.279671,29.313063C73.687222,28.615799,73.390998,27.651932,73.390999,26.421461C73.390998,24.630451,73.876349,23.099202,74.847054,21.827711C75.817753,20.551679,77.084679,19.913659,78.647835,19.913649C79.841838,19.913659,80.76241,20.237226,81.409554,20.884352C82.061237,21.526938,82.387083,22.44751,82.387093,23.64607C82.387083,25.058836,82.118203,26.31209,81.580452,27.405836C81.042683,28.499588,80.277059,29.278884,79.283577,29.743727C79.474976,30.131096,79.80538,30.431877,80.274788,30.64607C80.744181,30.86482,81.245482,30.974195,81.778694,30.974195C82.339231,30.974195,82.861041,30.810132,83.344124,30.482008L84.000374,31.548414C83.41703,32.282136,82.557981,32.648998,81.423225,32.649C80.653035,32.648998,79.948934,32.427969,79.310921,31.985914C78.677451,31.548413,78.219444,30.962801,77.936897,30.229078M75.236702,26.236891C75.236699,27.025305,75.389368,27.647375,75.69471,28.103102C76.004602,28.554275,76.453495,28.779861,77.041389,28.77986C78.121462,28.779861,78.975953,28.289953,79.604866,27.310133C80.233765,26.330319,80.548217,25.156818,80.548225,23.789625C80.548217,22.249268,79.876018,21.479087,78.531624,21.479078C77.583702,21.479087,76.79757,21.984946,76.173225,22.996656C75.548873,24.003824,75.236699,25.083901,75.236702,26.236891" transform="translate(3425,1375)"/>
    <text style="font-family: Arial; font-size: 16px; font-weight: bold; text-anchor: middle;" x="0" y="0" text-anchor="middle" stroke="none" fill="#000000" transform="translate(3475,1360.4)">
      <tspan dy="7.2">D0_meta</tspan>
    </text>
    <path style="stroke-linecap: round; stroke-miterlimit: 6;" fill="#ffffff" stroke="#000000" d="M12.5,62.5L87.5,62.5L87.5,0L12.5,0L12.5,62.5Z" stroke-width="2" stroke-linecap="round" stroke-miterlimit="6" transform="translate(3550,1375)"/>
    <path style="stroke-linecap: round; stroke-miterlimit: 6;" fill="none" stroke="#000000" d="M0,25L12.5,25" stroke-width="2" stroke-linecap="round" stroke-miterlimit="6" transform="translate(3550,1375)"/>
    <path style="stroke-linecap: round; stroke-miterlimit: 6;" fill="none" stroke="#000000" d="M100,25L87.5,25" stroke-width="2" stroke-linecap="round" stroke-miterlimit="6" transform="translate(3550,1375)"/>
    <path style="stroke-linecap: round; stroke-miterlimit: 6;" fill="none" stroke="#000000" d="M62.5,62.5L50,50L37.5,62.5" stroke-width="2" stroke-linecap="round" stroke-miterlimit="6" transform="translate(3550,1375)"/>
    <path style="stroke-linecap: round; stroke-miterlimit: 6;" fill="none" stroke="#000000" d="M50,75L50,62.5" stroke-width="2" stroke-linecap="round" stroke-miterlimit="6" transform="translate(3550,1375)"/>
    <path fill="#000000" stroke="none" d="M46.693359,37.413086C46.173821,37.043954,45.597324,36.859384,44.963867,36.859375C43.938471,36.859384,43.077144,37.349292,42.379883,38.329102C41.687172,39.304368,41.340818,40.386724,41.34082,41.576172C41.340818,42.346357,41.529945,42.961591,41.908203,43.421875C42.286455,43.882163,42.812821,44.112306,43.487305,44.112305C44.535476,44.112306,45.358066,43.827476,45.955078,43.257812L45.920898,44.823242C45.273756,45.388346,44.341791,45.670898,43.125,45.670898C42.040361,45.670898,41.165362,45.31543,40.5,44.604492C39.834634,43.888999,39.501952,42.961591,39.501953,41.822266C39.501952,39.981125,40.012369,38.436205,41.033203,37.1875C42.05859,35.938812,43.396154,35.314463,45.045898,35.314453C45.852532,35.314463,46.568026,35.446625,47.192383,35.710937L46.693359,37.413086" transform="translate(3550,1375)"/>
    <path fill="#000000" stroke="none" d="M53.973633,45.5L47.657227,45.5L49.496094,35.485352L51.287109,35.485352L49.735352,43.941406L54.260742,43.941406L53.973633,45.5" transform="translate(3550,1375)"/>
    <path fill="#000000" stroke="none" d="M60.296875,39.887695L62.785156,45.5L60.782227,45.5L58.90918,41.220703L57.487305,42.786133L56.981445,45.5L55.204102,45.5L57.042969,35.485352L58.820312,35.485352L57.993164,40.038086L62.149414,35.485352L64.254883,35.485352L60.296875,39.887695" transform="translate(3550,1375)"/>
    <path fill="#000000" stroke="none" d="M18.419922,30.086L16,30.086L17.825195,20.09186C18.490557,19.97338,19.114905,19.914136,19.698242,19.914125C21.224929,19.914136,22.405267,20.262768,23.239258,20.960024C24.073234,21.657298,24.490226,22.666737,24.490234,23.988344C24.490226,25.843166,23.938794,27.324284,22.835937,28.431704C21.733067,29.534569,20.261063,30.086,18.419922,30.086M19.308594,21.534243L18.091797,28.493227C18.292315,28.511458,18.474607,28.520572,18.638672,28.520571C19.860022,28.520572,20.830724,28.089909,21.550781,27.228579C22.270827,26.367254,22.630852,25.262112,22.630859,23.913149C22.630852,23.174875,22.38248,22.582427,21.885742,22.135805C21.388992,21.689199,20.750972,21.465892,19.97168,21.465883C19.752926,21.465892,19.531897,21.488678,19.308594,21.534243" transform="translate(3550,1375)"/>
    <path fill="#000000" stroke="none" d="M77.936897,30.229078C77.595095,30.311109,77.223677,30.352125,76.822639,30.352125C75.724329,30.352125,74.876674,30.005771,74.279671,29.313063C73.687222,28.615799,73.390998,27.651932,73.390999,26.421461C73.390998,24.630451,73.876349,23.099202,74.847054,21.827711C75.817753,20.551679,77.084679,19.913659,78.647835,19.913649C79.841838,19.913659,80.76241,20.237226,81.409554,20.884352C82.061237,21.526938,82.387083,22.44751,82.387093,23.64607C82.387083,25.058836,82.118203,26.31209,81.580452,27.405836C81.042683,28.499588,80.277059,29.278884,79.283577,29.743727C79.474976,30.131096,79.80538,30.431877,80.274788,30.64607C80.744181,30.86482,81.245482,30.974195,81.778694,30.974195C82.339231,30.974195,82.861041,30.810132,83.344124,30.482008L84.000374,31.548414C83.41703,32.282136,82.557981,32.648998,81.423225,32.649C80.653035,32.648998,79.948934,32.427969,79.310921,31.985914C78.677451,31.548413,78.219444,30.962801,77.936897,30.229078M75.236702,26.236891C75.236699,27.025305,75.389368,27.647375,75.69471,28.103102C76.004602,28.554275,76.453495,28.779861,77.041389,28.77986C78.121462,28.779861,78.975953,28.289953,79.604866,27.310133C80.233765,26.330319,80.548217,25.156818,80.548225,23.789625C80.548217,22.249268,79.876018,21.479087,78.531624,21.479078C77.583702,21.479087,76.79757,21.984946,76.173225,22.996656C75.548873,24.003824,75.236699,25.083901,75.236702,26.236891" transform="translate(3550,1375)"/>
    <text style="font-family: Arial; font-size: 16px; font-weight: bold; text-anchor: middle;" x="0" y="0" text-anchor="middle" stroke="none" fill="#000000" transform="translate(3600,1360.4)">
      <tspan dy="7.2">D1_sync</tspan>
    </text>
    <path style="stroke-linecap: round;" fill="none" stroke="#000000" d="M 3525 1400 L 3550 1400" stroke-width="2" stroke-linecap="round" class="cl_wire"/>
    <path style="stroke-linecap: round;" fill="none" stroke="#000000" d="M 3375 1150 L 3375 1218 A 7 7 0 1 1 3375 1232 L 3375 1268 A 7 7 0 1 1 3375 1282 L 3375 1400" stroke-width="2" stroke-linecap="round" class="cl_wire"/>
    <path style="stroke-linecap: round;" fill="none" stroke="#000000" d="M 3600 1450 L 3600 1475" stroke-width="2" stroke-linecap="round" class="cl_wire"/>
    <path style="stroke-linecap: round;" fill="none" stroke="#000000" d="M 2025 1475 L 2393 1475 A 7 7 0 1 1 2407 1475 L 3600 1475" stroke-width="2" stroke-linecap="round" class="cl_wire"/>
    <path style="stroke-linecap: round;" fill="none" stroke="#000000" d="M 3475 1450 L 3475 1475" stroke-width="2" stroke-linecap="round" class="cl_wire"/>
    <text style="font-family: Arial; font-size: 16px; font-weight: bold; text-anchor: start; font-style: normal;" x="0" y="0" text-anchor="start" stroke="none" fill="#000000" font-style="normal" transform="translate(3050,1061.5)">
      <tspan dy="7.2">2-FF Synchronizer (sync_Bits)</tspan>
    </text>
    <path style="stroke-linecap: round; stroke-miterlimit: 6;" fill="none" stroke="#000000" d="M0,87.58682C8.1610901,76.75672,12.576823,63.56152,12.576823,50C12.576823,36.43842,8.1610901,23.24327,0,12.41317" stroke-width="2" stroke-linecap="round" stroke-miterlimit="6" transform="translate(3750,1325)"/>
    <path style="stroke-linecap: round; stroke-miterlimit: 6;" fill="none" stroke="#000000" d="M6.958,75L0.0853583,75" stroke-width="2" stroke-linecap="round" stroke-miterlimit="6" transform="translate(3750,1325)"/>
    <path style="stroke-linecap: round; stroke-miterlimit: 6;" fill="none" stroke="#000000" d="M6.958,25L0.0853583,25" stroke-width="2" stroke-linecap="round" stroke-miterlimit="6" transform="translate(3750,1325)"/>
    <path style="stroke-linecap: round; stroke-miterlimit: 6;" fill="none" stroke="#000000" d="M125,50L100.22442,50" stroke-width="2" stroke-linecap="round" stroke-miterlimit="6" transform="translate(3750,1325)"/>
    <path style="stroke-linecap: round; stroke-miterlimit: 6;" fill="#ffffff" stroke="#000000" d="M12.5,87.5L35.15625,87.5C61.95,87.5,86.710417,73.20422,100.10833,50C86.710417,26.79583,61.95,12.5,35.15625,12.5L12.5,12.5C20.58125,23.225,25,36.4292,25,50C25,63.57082,20.58125,76.77502,12.5,87.5" stroke-width="2" stroke-linecap="round" stroke-miterlimit="6" transform="translate(3750,1325)"/>
    <text style="font-family: Arial; font-size: 16px; font-weight: bold; text-anchor: start;" x="0" y="0" text-anchor="start" stroke="none" fill="#000000" transform="translate(3787.5,1375)">
      <tspan dy="7.2">XOR3</tspan>
    </text>
    <path style="stroke-linecap: round;" fill="none" stroke="#000000" d="M 3725 1350 L 3750 1350" stroke-width="2" stroke-linecap="round" class="cl_wire"/>
    <path style="stroke-linecap: round;" fill="none" stroke="#000000" d="M 3725 1275 L 3725 1350" stroke-width="2" stroke-linecap="round" class="cl_wire"/>
    <path style="stroke-linecap: round;" fill="none" stroke="#000000" d="M 2950 1150 L 2975 1150" stroke-width="2" stroke-linecap="round" class="cl_wire"/>
    <path style="stroke-linecap: round;" fill="none" stroke="#000000" d="M 3025 1150 L 3025 1218 A 7 7 0 1 1 3025 1232 L 3025 1275" stroke-width="2" stroke-linecap="round" class="cl_wire"/>
    <path style="stroke-linecap: round;" fill="none" stroke="#000000" d="M 3375 1400 L 3425 1400" stroke-width="2" stroke-linecap="round" class="cl_wire"/>
    <path style="stroke-linecap: round;" fill="none" stroke="#000000" d="M 3025 1275 L 3725 1275" stroke-width="2" stroke-linecap="round" class="cl_wire"/>
    <path style="stroke-linecap: round;" fill="none" stroke="#000000" d="M 2900 1225 L 3950 1225" stroke-width="2" stroke-linecap="round" class="cl_wire"/>
    <path style="stroke-linecap: round;" fill="none" stroke="#000000" d="M 3650 1400 L 3750 1400" stroke-width="2" stroke-linecap="round" class="cl_wire"/>
    <path style="stroke-linecap: round;" fill="none" stroke="#000000" d="M 3875 1375 L 3875 1525" stroke-width="2" stroke-linecap="round" class="cl_wire"/>
    <path style="stroke-linecap: round;" fill="none" stroke="#000000" d="M 2400 1525 L 3875 1525" stroke-width="2" stroke-linecap="round" class="cl_wire"/>
    <path style="stroke-linecap: round;" fill="none" stroke="#000000" d="M 2400 1375 L 2400 1525" stroke-width="2" stroke-linecap="round" class="cl_wire"/>
    <path style="stroke-linecap: round; stroke-linejoin: round;" fill="#000000" stroke="#000000" d="M2600,1280L2630,1150L2616.3859941108717,1170.9680433910935L2633.049064931209,1174.813367426556L2630,1150" stroke-width="2" stroke-linecap="round" stroke-linejoin="round"/>
    <path style="stroke-linecap: round;" fill="none" stroke="#000000" d="M 2625 1150 L 2675 1150" stroke-width="2" stroke-linecap="round" class="cl_wire"/>
    <text style="font-family: Arial; font-size: 16px; font-weight: bold; text-anchor: start; font-style: normal;" x="0" y="0" text-anchor="start" stroke="none" fill="#000000" font-style="normal" transform="translate(2550,1286.5)">
      <tspan dy="7.2">Changed_Clk1</tspan>
    </text>
    <path style="stroke-linecap: round; stroke-linejoin: round;" fill="#000000" stroke="#000000" d="M3740,1025L3775,1125L3775.3097678483236,1100.0019191960635L3759.168839332152,1105.6512441767236L3775,1125" stroke-width="2" stroke-linecap="round" stroke-linejoin="round"/>
    <text style="font-family: Arial; font-size: 16px; font-weight: bold; text-anchor: start; font-style: normal;" x="0" y="0" text-anchor="start" stroke="none" fill="#000000" font-style="normal" transform="translate(3675,1011.5)">
      <tspan dy="7.2">Changed_Clk2</tspan>
    </text>
    <path style="stroke-linecap: round;" fill="none" stroke="#000000" d="M 2025 1200 L 2025 1475" stroke-width="2" stroke-linecap="round" class="cl_wire"/>
    <path style="stroke-linecap: round;" fill="none" stroke="#000000" d="M 3300 1150 L 3450 1150" stroke-width="2" stroke-linecap="round" class="cl_wire"/>
    <text style="font-family: Arial; font-size: 16px; font-weight: bold; text-anchor: start; font-style: normal;" x="0" y="0" text-anchor="start" stroke="none" fill="#000000" font-style="normal" transform="translate(2050,1384.5)">
      <tspan dy="-40.79999999999999">Required Hardware:</tspan>
      <tspan dy="19.2" x="0">  6x D-FF</tspan>
      <tspan dy="19.2" x="0">  1x T-FF (D-FF + XOR)</tspan>
      <tspan dy="19.2" x="0">  2x AND</tspan>
      <tspan dy="19.2" x="0">  2x XOR</tspan>
      <tspan dy="19.2" x="0">  2x NOT</tspan>
    </text>
    <text style="font-family: Arial; font-size: 24px; font-weight: bold; text-anchor: start; font-style: normal;" x="0" y="0" text-anchor="start" stroke="none" fill="#000000" font-style="normal" transform="translate(1850,1013.5)">
      <tspan dy="10.8">PoC.misc.sync.Strobe</tspan>
    </text>
    <circle cx="1950" cy="1150" r="3" fill="#000000" stroke="#000000"/>
    <circle cx="1825" cy="1150" r="3" fill="#000000" stroke="#000000"/>
    <circle cx="2025" cy="1475" r="3" fill="#000000" stroke="#000000"/>
    <circle cx="3125" cy="1225" r="3" fill="#000000" stroke="#000000"/>
    <circle cx="3250" cy="1225" r="3" fill="#000000" stroke="#000000"/>
    <circle cx="1825" cy="1475" r="3" fill="#000000" stroke="#000000"/>
    <circle cx="2400" cy="1525" r="3" fill="#000000" stroke="#000000"/>
    <circle cx="1825" cy="1525" r="3" fill="#000000" stroke="#000000"/>
    <circle cx="2975" cy="1150" r="3" fill="#000000" stroke="#000000"/>
    <circle cx="3425" cy="1150" r="3" fill="#000000" stroke="#000000"/>
    <circle cx="3925" cy="1125" r="3" fill="#000000" stroke="#000000"/>
    <circle cx="3925" cy="1225" r="3" fill="#000000" stroke="#000000"/>
    <circle cx="3500" cy="1225" r="3" fill="#000000" stroke="#000000"/>
    <circle cx="3375" cy="1150" r="3" fill="#000000" stroke="#000000"/>
    <circle cx="3475" cy="1475" r="3" fill="#000000" stroke="#000000"/>
    <circle cx="3025" cy="1150" r="3" fill="#000000" stroke="#000000"/>
    <circle cx="2630" cy="1150" r="3" fill="#000000" stroke="#000000"/>
    <circle cx="3775" cy="1125" r="3" fill="#000000" stroke="#000000"/>
  </g>
</svg>
